PathFileType	4	(X/Y/Z)	C:\Users\°ÂÌØÂü\Desktop\20210112\bx_n_10_1802-Unnamed.trc
DataRate	CameraRate	NumFrames	NumMarkers	Units	OrigDataRate	OrigDataStartFrame	OrigNumFrames
50.00	50.00	       4	0	mm	50.00	1	       518
Frame#	Time	
		

1	0.000	-703.51624	-53.73391	1546.00439	-600.37146	-0.03004	1058.83582	-596.33582	249.75548	1066.39099	-675.17023	291.54233	870.87146	-584.34174	0.41790	808.28174	-683.66980	274.77283	742.89447	-714.38965	254.95264	642.17346				-678.29407	147.52357	578.98883	-719.65192	249.00426	576.06537	-655.66504	25.32409	519.68823	-665.14795	207.68633	534.41913	-758.71796	260.06747	502.87488	-787.02185	49.38955	175.16081	-710.47827	76.88860	215.18643	-649.94757	-65.46732	163.24052	-709.56213	152.28552	216.48573	-766.23920	224.93184	205.88469	-609.32245	-74.49921	159.11455	-882.61194	296.15863	144.60854	-666.68060	57.22763	155.50221	-594.52618	24.89681	166.37701	-672.65894	170.54451	158.01128	-590.27173	218.82625	174.04166	-659.91193	297.42651	157.90234	-623.50482	306.03214	158.93434	-555.27441	256.16684	165.48430	-527.88525	304.47412	146.88312	-689.62299	135.77635	1849.67468	-711.82727	300.22382	1536.76770	-517.37585	-72.71810	143.33839	-547.70428	-34.07375	164.00229	-793.49304	175.57217	184.36940	-799.04144	111.70479	1050.23840	-752.26331	-34.27331	489.95523	-754.95624	-10.24778	207.37379	-876.18384	-78.95393	141.52309	-596.63190	115.58768	1355.31921	-662.42578	-65.32740	874.67444	-682.13855	-52.26467	758.99023	-699.73541	-25.38374	617.01837	-706.47809	-23.25818	569.69135	-574.46936	217.26236	817.38940	-682.43335	82.92028	575.08942	
2	0.020	-703.53827	-53.80048	1545.95251	-600.60004	0.04551	1058.78906	-596.58783	249.74243	1066.39294	-675.23157	291.53809	871.09143	-584.29602	0.49285	808.34930	-683.66980	274.77283	742.89447	-714.44855	254.94865	641.95215				-678.29407	147.52357	578.98883	-717.38641	250.16109	576.58099	-655.67621	25.22966	519.55859	-665.14795	207.68633	534.41913	-758.77905	259.99347	502.81287	-786.95557	49.30501	175.11690	-710.81628	76.78426	215.01105	-650.09497	-65.48866	163.15286	-709.67358	152.21965	216.72983	-766.14819	225.06461	205.93407	-609.24854	-74.63050	159.14238	-882.45593	296.22400	144.77756	-666.41418	57.32800	155.57172	-594.47253	25.06682	166.06766	-672.57611	170.54367	157.99672	-590.40210	218.97168	174.16553	-659.92340	297.31281	157.86221	-623.52264	306.11490	158.85695	-554.99426	256.38489	165.52336	-527.99475	304.39630	146.60587	-689.26331	135.57559	1849.69946	-711.78204	300.05334	1536.85107	-517.43677	-72.43692	143.24425	-547.78094	-34.13556	164.11597	-793.49133	175.44389	184.35565	-799.15521	111.60522	1050.33801	-752.28998	-34.21195	490.00122	-755.01971	-10.34159	207.34761	-876.18384	-78.95393	141.52309	-596.61993	115.45732	1355.33740	-662.39807	-65.44830	874.61792	-682.22223	-52.46699	759.10114	-699.80713	-25.46285	617.18182	-706.37811	-23.19850	569.43951	-573.93073	217.72139	817.49329	-682.68872	83.08620	575.12445	
3	0.040	-703.45270	-53.92655	1545.81506	-600.70862	-0.00933	1058.85010	-596.70355	249.70715	1066.59521	-675.62543	291.27426	870.93921	-584.28998	0.29907	808.55066	-683.80255	274.86505	743.23224	-714.43372	254.82738	641.97656				-678.34961	147.62524	578.97589	-717.34546	250.15703	576.67957	-655.57367	25.33533	519.53131	-665.14795	207.68633	534.41913	-758.77905	259.99347	502.81287	-786.88800	49.28596	175.13530	-710.94647	76.75880	215.09480	-650.09045	-65.49387	163.16351	-709.65527	152.14993	216.81190	-766.27045	224.91228	205.84706	-609.25525	-74.60136	159.21381	-882.53766	296.18567	144.65939	-666.41418	57.32800	155.57172	-594.50433	24.94233	166.09221	-672.75757	170.64203	157.93063	-590.25989	218.96526	174.03897	-659.99188	297.25876	157.73093	-623.39331	306.04315	158.97464	-555.07587	256.33185	165.41803	-527.95721	304.59146	146.92218	-688.88361	135.34404	1849.67334	-711.74677	299.88126	1536.86975	-517.37585	-72.71810	143.33839	-547.78094	-34.13556	164.11597	-793.62085	175.39185	184.39610	-799.41974	111.48329	1050.41748	-752.06116	-34.48423	489.95367	-755.01971	-10.34159	207.34761	-876.25970	-78.81245	141.69560	-596.72412	115.47421	1355.13086	-662.50385	-65.40708	874.41486	-682.20044	-52.56380	759.20068	-699.73541	-25.38374	617.01837	-706.40167	-23.43036	569.76111	-574.59814	217.37160	817.51123	-682.26666	82.93436	574.97449	
4	0.060	-703.21838	-54.11361	1545.76172	-600.96472	0.01460	1058.72705	-596.84430	249.52411	1066.34387	-675.98956	291.37653	871.01917	-584.31097	0.28869	808.41754	-683.84845	275.11279	743.47034	-714.49274	254.90823	642.06360				-678.29407	147.52357	578.98883	-717.34546	250.15703	576.67957	-655.67621	25.22966	519.55859	-665.16284	207.64284	534.53278	-758.77905	259.99347	502.81287	-786.95557	49.30501	175.11690	-710.70361	77.13496	215.25629	-649.92419	-65.47151	163.05397	-709.73749	152.18542	216.63429	-766.16370	224.96999	205.87233	-609.10669	-74.74509	159.28424	-882.56543	296.24789	144.84554	-666.41418	57.32800	155.57172	-594.53497	24.94726	165.98822	-672.65894	170.54451	158.01128	-590.31525	218.93571	173.98192	-659.94769	297.38715	157.78882	-623.52264	306.11490	158.85695	-554.99426	256.38489	165.52336	-527.99475	304.39630	146.60587	-688.31757	134.83006	1849.70410	-711.64667	299.78107	1536.80713	-517.50909	-72.51623	143.05052	-547.77570	-34.07740	164.16585	-793.67896	175.33961	184.76300	-799.46838	111.39460	1050.46936	-752.06409	-34.38467	489.77505	-755.07147	-10.45594	207.69089	-876.18384	-78.95393	141.52309	-596.82172	115.29950	1355.05261	-662.72351	-65.42736	874.36108	-682.16162	-52.62464	759.03278	-699.50665	-25.50664	616.82361	-706.31671	-23.17474	569.63464	-574.53802	217.35477	817.71002	-682.17346	82.69419	575.15759	
